<svg width="339" height="286" viewBox="0 0 339 286" fill="none" xmlns="http://www.w3.org/2000/svg">
<rect y="4.46228" width="339" height="99.9551" fill="#FF0000"/>
<rect y="163.766" width="339" height="107.095" fill="black"/>
<rect y="127.621" width="339" height="14.2793" fill="black"/>
<g filter="url(#filter0_d_407_61)">
<path d="M20.7296 69.3257C20.7296 73.9569 21.8044 78.1154 23.9541 81.8015C26.1972 85.393 29.1413 88.2284 32.7864 90.3077C36.4315 92.387 40.5439 93.4266 45.1236 93.4266C49.8903 93.4266 54.1429 92.387 57.8814 90.3077C61.62 88.2284 64.5641 85.393 66.7138 81.8015C68.8635 78.1154 69.9383 73.9569 69.9383 69.3257V3.11895H83.2569V69.751C83.2569 77.2176 81.5278 83.739 78.0696 89.3153C74.7049 94.8916 70.1252 99.192 64.3305 102.216C58.6292 105.241 52.2269 106.753 45.1236 106.753C38.0204 106.753 31.6181 105.241 25.9168 102.216C20.2155 99.192 15.6825 94.8916 12.3178 89.3153C8.95313 83.739 7.27078 77.2176 7.27078 69.751V3.11895H20.7296V69.3257Z" fill="white"/>
<path d="M198.841 108.88L120.471 28.4958L124.397 29.4882L124.677 105.619H111.078V0H111.779L189.307 80.6673L186.083 79.9585L185.802 3.11895H199.261V108.88H198.841Z" fill="white"/>
<path d="M295.143 92.2925H329.912V105.619H277.058L295.143 92.2925ZM222.101 54.4398C222.101 47.3513 223.41 40.6881 226.027 34.4502C228.737 28.1178 232.476 22.5415 237.242 17.7213C242.009 12.8066 247.476 8.97879 253.645 6.2379C259.907 3.40249 266.637 1.98479 273.833 1.98479C280.937 1.98479 287.572 3.40249 293.741 6.2379C300.003 8.97879 305.517 12.8066 310.284 17.7213C315.144 22.5415 318.93 28.1178 321.64 34.4502C324.35 40.6881 325.706 47.3513 325.706 54.4398C325.706 61.7173 324.35 68.5223 321.64 74.8547C318.93 81.1871 315.144 86.7634 310.284 91.5836C305.517 96.3093 300.003 100.043 293.741 102.783C287.572 105.43 280.937 106.753 273.833 106.753C266.637 106.753 259.907 105.43 253.645 102.783C247.476 100.137 242.009 96.4511 237.242 91.7254C232.476 86.9997 228.737 81.4707 226.027 75.1383C223.41 68.8059 222.101 61.9064 222.101 54.4398ZM236.121 54.5816C236.121 59.9688 237.102 65.0253 239.065 69.751C241.027 74.3822 243.738 78.4935 247.196 82.085C250.654 85.6765 254.673 88.4647 259.253 90.4495C263.833 92.4343 268.786 93.4266 274.114 93.4266C279.348 93.4266 284.254 92.4343 288.834 90.4495C293.414 88.4647 297.386 85.6765 300.751 82.085C304.116 78.4935 306.779 74.3822 308.742 69.751C310.705 65.0253 311.686 59.9216 311.686 54.4398C311.686 49.147 310.705 44.1378 308.742 39.4122C306.779 34.6865 304.069 30.5751 300.611 27.0781C297.152 23.4866 293.134 20.6985 288.554 18.7137C283.974 16.6344 279.067 15.5947 273.833 15.5947C268.506 15.5947 263.552 16.6344 258.973 18.7137C254.393 20.6985 250.374 23.4866 246.916 27.0781C243.458 30.6696 240.794 34.8282 238.925 39.5539C237.055 44.2796 236.121 49.2888 236.121 54.5816Z" fill="white"/>
</g>
<g filter="url(#filter1_d_407_61)">
<path d="M24.8667 173.136L55.6965 222.131L86.6002 173.136H104.196L63.3115 236.391V278H48.1554V236.391L7.27078 173.136H24.8667Z" fill="white"/>
<path d="M211.768 263.009C211.768 265.057 211.373 267.007 210.585 268.859C209.796 270.663 208.712 272.247 207.332 273.612C205.952 274.977 204.325 276.05 202.452 276.83C200.629 277.61 198.682 278 196.612 278H136.061C133.991 278 132.019 277.61 130.146 276.83C128.323 276.05 126.721 274.977 125.341 273.612C123.961 272.247 122.876 270.663 122.088 268.859C121.299 267.007 120.905 265.057 120.905 263.009V188.127C120.905 186.08 121.299 184.154 122.088 182.35C122.876 180.498 123.961 178.913 125.341 177.597C126.721 176.232 128.323 175.16 130.146 174.38C132.019 173.551 133.991 173.136 136.061 173.136H196.612C198.682 173.136 200.629 173.551 202.452 174.38C204.325 175.16 205.952 176.232 207.332 177.597C208.712 178.913 209.796 180.498 210.585 182.35C211.373 184.154 211.768 186.08 211.768 188.127V263.009ZM136.061 188.127V263.009H196.612V188.127H136.061Z" fill="white"/>
<path d="M239.049 173.136H254.205V263.009H314.755V173.136H329.912V263.009C329.912 265.057 329.517 267.007 328.729 268.859C327.94 270.663 326.856 272.247 325.476 273.612C324.096 274.977 322.469 276.05 320.596 276.83C318.772 277.61 316.826 278 314.755 278H254.205C252.135 278 250.163 277.61 248.29 276.83C246.467 276.05 244.865 274.977 243.485 273.612C242.105 272.247 241.02 270.663 240.232 268.859C239.443 267.007 239.049 265.057 239.049 263.009V173.136Z" fill="white"/>
</g>
<defs>
<filter id="filter0_d_407_61" x="3.27078" y="0" width="330.641" height="116.88" filterUnits="userSpaceOnUse" color-interpolation-filters="sRGB">
<feFlood flood-opacity="0" result="BackgroundImageFix"/>
<feColorMatrix in="SourceAlpha" type="matrix" values="0 0 0 0 0 0 0 0 0 0 0 0 0 0 0 0 0 0 127 0" result="hardAlpha"/>
<feOffset dy="4"/>
<feGaussianBlur stdDeviation="2"/>
<feComposite in2="hardAlpha" operator="out"/>
<feColorMatrix type="matrix" values="0 0 0 0 0 0 0 0 0 0 0 0 0 0 0 0 0 0 0.25 0"/>
<feBlend mode="normal" in2="BackgroundImageFix" result="effect1_dropShadow_407_61"/>
<feBlend mode="normal" in="SourceGraphic" in2="effect1_dropShadow_407_61" result="shape"/>
</filter>
<filter id="filter1_d_407_61" x="3.27078" y="173.136" width="330.641" height="112.864" filterUnits="userSpaceOnUse" color-interpolation-filters="sRGB">
<feFlood flood-opacity="0" result="BackgroundImageFix"/>
<feColorMatrix in="SourceAlpha" type="matrix" values="0 0 0 0 0 0 0 0 0 0 0 0 0 0 0 0 0 0 127 0" result="hardAlpha"/>
<feOffset dy="4"/>
<feGaussianBlur stdDeviation="2"/>
<feComposite in2="hardAlpha" operator="out"/>
<feColorMatrix type="matrix" values="0 0 0 0 0 0 0 0 0 0 0 0 0 0 0 0 0 0 0.25 0"/>
<feBlend mode="normal" in2="BackgroundImageFix" result="effect1_dropShadow_407_61"/>
<feBlend mode="normal" in="SourceGraphic" in2="effect1_dropShadow_407_61" result="shape"/>
</filter>
</defs>
</svg>
